PathFileType	4	(X/Y/Z)	7_coords_data.trc
DataRate	CameraRate	NumFrames	NumMarkers	Units	OrigDataRate	OrigDataStartFrame	OrigNumFrames
30.0	30.0	5	21	m	30.0	30	68
Frame#	Time	THUMB_TIP	THUMB_IP	THUMB_MCP	THUMB_CMC	INDEX_TIP	INDEX_DIP	INDEX_PIP	INDEX_MCP	MIDDLE_TIP	MIDDLE_DIP	MIDDLE_PIP	MIDDLE_MCP	RING_TIP	RING_DIP	RING_PIP	RING_MCP	PINKY_TIP	PINKY_DIP	PINKY_PIP	PINKY_MCP	WRIST
X1	Y1	Z1	X2	Y2	Z2	X3	Y3	Z3	X4	Y4	Z4	X5	Y5	Z5	X6	Y6	Z6	X7	Y7	Z7	X8	Y8	Z8	X9	Y9	Z9	X10	Y10	Z10	X11	Y11	Z11	X12	Y12	Z12	X13	Y13	Z13	X14	Y14	Z14	X15	Y15	Z15	X16	Y16	Z16	X17	Y17	Z17	X18	Y18	Z18	X19	Y19	Z19	X20	Y20	Z20	X21	Y21	Z21
29	0.9666666666666667	-0.030980199813842774	-0.07816549682617188	1.025449951171875	-0.04977930068969726	-0.06695700073242188	1.01952001953125	-0.06511840057373047	-0.04658100128173828	1.0116099853515625	-0.0662876968383789	-0.016755500793457032	1.0113099975585937	-0.03300249862670898	-0.13129400634765626	0.9812650146484375	-0.03880149841308594	-0.11121600341796875	0.9801420288085938	-0.0443125	-0.09023629760742187	0.9793660278320313	-0.04801789855957031	-0.05135029983520508	0.9720460205078125	-0.043437198638916014	-0.05411159896850586	1.0085800170898438	-0.03388370132446289	-0.07138729858398438	1.0074199829101562	-0.017414600372314452	-0.08036589813232421	0.991322998046875	-0.022766599655151366	-0.044520698547363284	0.972656982421875	-0.03484000015258789	-0.04967589950561523	1.02147998046875	-0.022106500625610353	-0.06182210159301758	1.0184299926757812	-0.003504120111465454	-0.06459040069580078	1.0059600219726563	-0.007297540187835693	-0.03303570175170899	0.9858930053710937	0.04885940170288086	-0.05565299987792969	0.9934559936523437	0.03297439956665039	-0.04658819961547851	0.9973049926757812	0.01777829933166504	-0.03900709915161133	1.0002999877929688	-0.004597040176391601	-0.027340700149536133	1.0046699829101562	-0.06278820037841797	0.021667999267578127	1.0131400146484375
30	1.0	-0.030401899337768556	-0.07782109832763671	1.0255899658203125	-0.04846810150146484	-0.06742060089111328	1.02047998046875	-0.06444120025634766	-0.047098098754882814	1.0124299926757812	-0.06599839782714843	-0.017171899795532228	1.012219970703125	-0.03321620178222656	-0.13119200134277345	0.9835490112304688	-0.038926700592041015	-0.11120099639892578	0.9818330078125	-0.04443960189819336	-0.0902303009033203	0.9804949951171875	-0.048456600189208984	-0.051507301330566406	0.9729520263671875	-0.043087299346923826	-0.05460599899291992	1.0089500122070312	-0.03369670104980469	-0.07170809936523438	1.007739990234375	-0.017376699447631837	-0.08057630157470703	0.9916649780273438	-0.023053199768066406	-0.04467060089111328	0.9730640258789063	-0.03455839920043945	-0.04979410171508789	1.0221799926757813	-0.02185059928894043	-0.06210150146484375	1.0188900146484374	-0.0033220000267028807	-0.06499690246582031	1.00622998046875	-0.0074220199584960934	-0.033513099670410156	0.9860850219726562	0.04867679977416992	-0.05667179870605469	0.994073974609375	0.032905899047851565	-0.04732450103759766	0.9978140258789062	0.017806299209594728	-0.03949779891967774	1.000760009765625	-0.004454480171203613	-0.027521799087524414	1.0050800170898437	-0.06257580184936523	0.021319799423217774	1.013969970703125
31	1.0333333333333334	-0.030257900238037108	-0.0786781005859375	1.0254200439453125	-0.04832699966430664	-0.06769960021972657	1.020510009765625	-0.06437560272216797	-0.0473765983581543	1.0127899780273437	-0.065964599609375	-0.017328699111938475	1.012719970703125	-0.033737598419189455	-0.13105499267578125	0.9842769775390625	-0.0393916015625	-0.11110800170898437	0.9823699951171875	-0.04479219818115234	-0.09015609741210938	0.9808070068359375	-0.04859130096435547	-0.051386299133300783	0.973052001953125	-0.043339599609375	-0.05488359832763672	1.009280029296875	-0.03356219863891602	-0.07194129943847656	1.0078200073242187	-0.017586599349975585	-0.08082479858398438	0.9911729736328125	-0.023330400466918946	-0.04469499969482422	0.9734949951171875	-0.034268901824951174	-0.05043379974365234	1.0225599975585937	-0.021626300811767578	-0.06254759979248047	1.0186699829101562	-0.003179409980773926	-0.0653904037475586	1.0058800048828125	-0.007471139907836914	-0.0337041015625	0.98627197265625	0.04877069854736328	-0.05683430099487305	0.993406005859375	0.033010299682617185	-0.04747809982299805	0.9973779907226562	0.017973600387573244	-0.039753898620605466	1.00052001953125	-0.004351809978485107	-0.02793589973449707	1.0053499755859374	-0.062166000366210936	0.02083250045776367	1.0145399780273439
32	1.0666666666666667	-0.03025069999694824	-0.07785130310058594	1.0261300048828126	-0.04861819839477539	-0.06758180236816407	1.0211500244140626	-0.064581298828125	-0.04724739837646484	1.0135499877929688	-0.06598680114746094	-0.017203699111938475	1.0133800048828125	-0.03390869903564453	-0.1309029998779297	0.9850029907226563	-0.03960430145263672	-0.11090299987792969	0.983094970703125	-0.04502230072021484	-0.08998020172119141	0.9814520263671875	-0.04874319839477539	-0.0511953010559082	0.973405029296875	-0.043215301513671874	-0.054766998291015626	1.0093900146484376	-0.03385369873046875	-0.0719259033203125	1.0081699829101562	-0.017858699798583986	-0.08074720001220703	0.9917780151367187	-0.02349650001525879	-0.044607799530029295	0.973666015625	-0.034246799468994144	-0.05026959991455078	1.02247998046875	-0.02151460075378418	-0.06259209823608398	1.0188499755859375	-0.0031468698978424072	-0.0653113021850586	1.0059199829101562	-0.007574250221252441	-0.03348189926147461	0.9866300048828125	0.04877199935913086	-0.05658520126342773	0.9933829956054687	0.03303120040893555	-0.04734609985351562	0.9975430297851563	0.017964599609375	-0.039625499725341795	1.0006900024414063	-0.00446314001083374	-0.027795799255371095	1.0056300048828124	-0.06228580093383789	0.020777299880981447	1.0151599731445313
33	1.1	-0.030809099197387696	-0.07867209625244141	1.02643994140625	-0.049101299285888675	-0.06735479736328125	1.0214400024414063	-0.06481770324707031	-0.046904701232910156	1.014010009765625	-0.06607499694824219	-0.017080799102783203	1.0141599731445312	-0.034518199920654295	-0.13061399841308594	0.9852670288085937	-0.0402156982421875	-0.11063700103759766	0.9834860229492187	-0.045617900848388675	-0.08968910217285156	0.9820689697265625	-0.049263999938964846	-0.050987201690673827	0.9739879760742187	-0.04359170150756836	-0.054339801788330075	1.010219970703125	-0.03424929809570312	-0.0718053970336914	1.0084500122070312	-0.01839859962463379	-0.08071970367431641	0.991864990234375	-0.023816999435424806	-0.0444463005065918	0.9740919799804687	-0.03430319976806641	-0.050464900970458984	1.0225700073242188	-0.02185890007019043	-0.0625968017578125	1.0199600219726563	-0.0032753400802612302	-0.06542410278320313	1.0059500122070313	-0.00789670991897583	-0.03352180099487305	0.9871420288085937	0.04874829864501953	-0.05627429962158203	0.9938939819335938	0.03293999862670898	-0.04707789993286133	0.9979760131835937	0.01782390022277832	-0.03941289901733398	1.0011199951171874	-0.004619349956512451	-0.02780550003051758	1.00625	-0.06248630142211914	0.021382699966430663	1.0163499755859375
